<svg xmlns="http://www.w3.org/2000/svg" width="100" height="100" style="background: transparent; border: none; outline: none;">
  <path d="M80.398 8.965C90.522 16.884 97.112 27.479 100 40c1.717 17.492-1.695 30.961-12.516 44.96-6.83 7.625-18.603 14.311-28.81 15.255C42.743 100.976 29.896 99.088 17 89 7.466 80.323.3 68.478-.336 55.363-.588 41.303 1.181 30.375 10 19l1.555-2.086C28.383-4.102 59.067-5.512 80.398 8.964" fill="#f5f5f5"/>
  <path d="m44.738 20.805 3.233.02 3.342.05 3.4.027q4.143.036 8.287.098v8l-2.156.044c-3.22.075-6.438.171-9.657.268l-3.392.069-3.252.107-3 .08C38.65 30.06 37.729 30.67 36 33c-.556 2.703-.432 5.279 0 8 1.543 2.175 2.637 2.818 5 4 1.67.106 3.343.155 5.016.176l3.043.072a583 583 0 0 0 6.336.094c6.167.17 9.91.54 14.605 4.658 3.466 3.74 4.284 6.594 4.438 11.563-.218 5.188-1.033 8.193-4.903 11.804-4.443 3.846-6.633 4.759-12.418 4.73l-3.535-.01c-1.223-.007-2.447-.016-3.707-.025l-3.73-.013A3195 3195 0 0 1 37 78v-7l1.94-.044c2.917-.075 5.832-.171 8.748-.269l3.052-.068c7.15-.168 7.15-.168 13.26-3.619 1.444-2.889 1.377-4.796 1-8-1.743-2.89-1.743-2.89-5-5-3.83-.686-7.616-.654-11.5-.625-13.02 0-13.02 0-18.047-4.875C26.477 43.543 25.578 40.336 26 34c1.668-5.178 3.41-8.05 8-11 3.728-1.768 6.625-2.24 10.738-2.195" fill="#F12196"/>
  <path d="M61 46c4.923.434 7.488 2.644 11 6 2.94 4.649 2.499 9.687 2 15-1.935 4.946-6.27 8.635-11 11-1.96.085-3.922.107-5.883.098l-3.535-.01-3.707-.025-3.73-.014A3195 3195 0 0 1 37 78v-7l1.94-.044c2.917-.075 5.832-.171 8.748-.269l3.052-.068c7.162-.157 7.162-.157 13.26-3.619 2.864-4.774 3.479-8.406 2.66-13.91-1.027-3.25-3.047-5.013-5.66-7.09" fill="#F6F01F"/>
  <path d="M64 29h11v12q-6.78.075-13.562.11-2.308.016-4.615.04c-2.21.025-4.418.036-6.628.045l-2.09.032c-1.703 0-3.406-.105-5.105-.227l-2-2c.536-3.536.536-3.536 2-5a76 76 0 0 1 4.691-.098l2.862.01 3.01.026 3.021.013Q60.292 33.97 64 34z" fill="#049EEB"/>
  <path d="M25 58q6.78-.074 13.562-.11 2.307-.015 4.615-.04c2.21-.025 4.418-.036 6.628-.045l2.09-.032c1.703 0 3.406.105 5.105.227l2 2-1 5H35v5H25z" fill="#03A5F3"/>
  <path d="M40 54c3.583-.145 7.165-.234 10.75-.312l3.078-.127c7.528-.124 7.528-.124 10.84 2.771C66.313 59.627 66.681 61.367 66 65c-2.173 2.573-3.98 4.49-7 6-1.74.084-3.484.107-5.227.098l-3.125-.01-3.273-.025-3.297-.014A2490 2490 0 0 1 36 71v-5l21-1c1.098-4.64 1.098-4.64 1-8H25v-1h15z" fill="#0A0C18"/>
</svg>